<?xml version="1.0" standalone="no"?><!DOCTYPE svg PUBLIC "-//W3C//DTD SVG 1.1//EN" "http://www.w3.org/Graphics/SVG/1.1/DTD/svg11.dtd"><svg t="1622730646506" class="icon" viewBox="0 0 1024 1024" version="1.1" xmlns="http://www.w3.org/2000/svg" p-id="3631" width="32" height="32" xmlns:xlink="http://www.w3.org/1999/xlink"><defs><style type="text/css"></style></defs><path d="M928.426667 873.813333h-785.066667v-375.466666h785.066667v375.466666z m-750.933334-34.133333h716.8v-307.2h-716.8v307.2z" fill="#2D3545" p-id="3632"></path><path d="M258.423467 514.901333l204.4928-306.756266 28.398933 18.944-204.458667 306.722133z" fill="#2D3545" p-id="3633"></path><path d="M535.893333 293.546667c-47.786667 0-85.333333-37.546667-85.333333-85.333334s37.546667-85.333333 85.333333-85.333333 85.333333 37.546667 85.333334 85.333333-37.546667 85.333333-85.333334 85.333334z m0-136.533334c-27.306667 0-51.2 23.893333-51.2 51.2s23.893333 51.2 51.2 51.2 51.2-23.893333 51.2-51.2-20.48-51.2-51.2-51.2z" fill="#2D3545" p-id="3634"></path><path d="M588.117333 238.353067l28.672-18.5344 187.2896 289.450666-28.672 18.5344z" fill="#2D3545" p-id="3635"></path><path d="M266.24 785.066667c-30.72 0-58.026667-27.306667-58.026667-58.026667v-85.333333c0-30.72 27.306667-58.026667 58.026667-58.026667s58.026667 27.306667 58.026667 58.026667h-27.306667c0-17.066667-13.653333-27.306667-27.306667-27.306667-17.066667 0-27.306667 13.653333-27.306666 27.306667v85.333333c0 17.066667 13.653333 27.306667 27.306666 27.306667 17.066667 0 27.306667-13.653333 27.306667-27.306667h27.306667c0 34.133333-27.306667 58.026667-58.026667 58.026667zM856.746667 785.066667h-98.986667v-201.386667h98.986667v27.306667H785.066667v146.773333h71.68z" fill="#FF9A22" p-id="3636"></path><path d="M771.413333 669.013333h58.026667v27.306667h-58.026667zM453.973333 785.066667h-98.986666v-187.733334h27.306666v160.426667h71.68zM525.653333 785.066667c-30.72 0-58.026667-27.306667-58.026666-58.026667v-85.333333c0-30.72 27.306667-58.026667 58.026666-58.026667 30.72 0 58.026667 27.306667 58.026667 58.026667v85.333333c0 34.133333-27.306667 58.026667-58.026667 58.026667z m0-174.08c-17.066667 0-27.306667 13.653333-27.306666 27.306666v85.333334c0 17.066667 13.653333 27.306667 27.306666 27.306666 17.066667 0 27.306667-13.653333 27.306667-27.306666v-85.333334c3.413333-13.653333-10.24-27.306667-27.306667-27.306666zM669.013333 785.066667c-30.72 0-54.613333-23.893333-58.026666-54.613334l27.306666-3.413333c0 13.653333 13.653333 27.306667 27.306667 27.306667 17.066667 0 27.306667-13.653333 27.306667-27.306667s-10.24-23.893333-30.72-27.306667h-3.413334c-44.373333-10.24-51.2-37.546667-51.2-58.026666 0-30.72 27.306667-58.026667 58.026667-58.026667 30.72 0 54.613333 23.893333 58.026667 54.613333l-27.306667 3.413334c0-13.653333-13.653333-27.306667-27.306667-27.306667-17.066667 0-27.306667 13.653333-27.306666 27.306667s10.24 23.893333 30.72 27.306666v13.653334l3.413333-13.653334c44.373333 10.24 51.2 37.546667 51.2 58.026667 0 34.133333-23.893333 58.026667-58.026667 58.026667z" fill="#FF9A22" p-id="3637"></path></svg>